<?xml version="1.0" encoding="UTF-8"?>
<svg xmlns="http://www.w3.org/2000/svg" width="600" height="650" viewBox="0 0 600 650">
  <defs>
    <!-- Tangga ramping -->
    <symbol id="ladderSymbol" viewBox="0 0 100 300">
      <rect x="12" y="10" width="6" height="280" rx="2" fill="#c4904f"/>
      <rect x="82" y="10" width="6" height="280" rx="2" fill="#c4904f"/>
      <g stroke="#efe7d6" stroke-width="3" stroke-linecap="round">
        <line x1="18" x2="82" y1="40" y2="40"/>
        <line x1="18" x2="82" y1="72" y2="72"/>
        <line x1="18" x2="82" y1="104" y2="104"/>
        <line x1="18" x2="82" y1="136" y2="136"/>
        <line x1="18" x2="82" y1="168" y2="168"/>
        <line x1="18" x2="82" y1="200" y2="200"/>
        <line x1="18" x2="82" y1="232" y2="232"/>
        <line x1="18" x2="82" y1="264" y2="264"/>
        <line x1="18" x2="82" y1="296" y2="296"/>
      </g>
    </symbol>

    <!-- Ular ramping -->
    <symbol id="snakeSymbol" viewBox="0 0 300 200">
      <path d="M20 160 C80 120, 120 40, 180 60 C240 80, 260 40, 280 20"
            stroke="#2b7d59" stroke-width="12" stroke-linecap="round" stroke-linejoin="round" fill="none"/>
      <path d="M20 160 C80 120, 120 40, 180 60 C240 80, 260 40, 280 20"
            stroke="#0f3e2b" stroke-width="2" stroke-linecap="round" fill="none"/>
      <g transform="translate(278,20) rotate(15) scale(0.7)">
        <path d="M0 0 C12 -6, 34 -6, 38 6 C42 18, 30 28, 14 24 C0 20 -6 8 0 0"
              fill="#2b7d59" stroke="#0f3e2b" stroke-width="2"/>
        <circle cx="26" cy="6" r="2.5" fill="#fff"/>
        <circle cx="26.5" cy="6.5" r="1" fill="#000"/>
        <path d="M36 8 L44 2" stroke="#d33" stroke-width="1.5" stroke-linecap="round"/>
        <path d="M36 10 L44 4" stroke="#d33" stroke-width="1.5" stroke-linecap="round"/>
      </g>
    </symbol>
  </defs>

  <!-- background -->
  <rect x="50" y="50" width="500" height="500" rx="12" fill="#f8fbff" stroke="#cbd5e1"/>

  <!-- grid 10x10 -->
  <g transform="translate(50,50)">
    <!-- kotak & angka -->
    <!-- row 0 at bottom -->
    <!-- generate cells -->
<rect x="0" y="450" width="50" height="50" fill="#fff" stroke="#94a3b8"/>
<text x="5" y="470" font-size="10" fill="#475569">100</text>
<rect x="50" y="450" width="50" height="50" fill="#fff" stroke="#94a3b8"/>
<text x="55" y="470" font-size="10" fill="#475569">99</text>
<rect x="100" y="450" width="50" height="50" fill="#fff" stroke="#94a3b8"/>
<text x="105" y="470" font-size="10" fill="#475569">98</text>
<rect x="150" y="450" width="50" height="50" fill="#fff" stroke="#94a3b8"/>
<text x="155" y="470" font-size="10" fill="#475569">97</text>
<rect x="200" y="450" width="50" height="50" fill="#fff" stroke="#94a3b8"/>
<text x="205" y="470" font-size="10" fill="#475569">96</text>
<rect x="250" y="450" width="50" height="50" fill="#fff" stroke="#94a3b8"/>
<text x="255" y="470" font-size="10" fill="#475569">95</text>
<rect x="300" y="450" width="50" height="50" fill="#fff" stroke="#94a3b8"/>
<text x="305" y="470" font-size="10" fill="#475569">94</text>
<rect x="350" y="450" width="50" height="50" fill="#fff" stroke="#94a3b8"/>
<text x="355" y="470" font-size="10" fill="#475569">93</text>
<rect x="400" y="450" width="50" height="50" fill="#fff" stroke="#94a3b8"/>
<text x="405" y="470" font-size="10" fill="#475569">92</text>
<rect x="450" y="450" width="50" height="50" fill="#fff" stroke="#94a3b8"/>
<text x="455" y="470" font-size="10" fill="#475569">91</text>
<rect x="450" y="400" width="50" height="50" fill="#f1f5f9" stroke="#94a3b8"/>
<text x="455" y="420" font-size="10" fill="#475569">90</text>
<rect x="400" y="400" width="50" height="50" fill="#f1f5f9" stroke="#94a3b8"/>
<text x="405" y="420" font-size="10" fill="#475569">89</text>
<rect x="350" y="400" width="50" height="50" fill="#f1f5f9" stroke="#94a3b8"/>
<text x="355" y="420" font-size="10" fill="#475569">88</text>
<rect x="300" y="400" width="50" height="50" fill="#f1f5f9" stroke="#94a3b8"/>
<text x="305" y="420" font-size="10" fill="#475569">87</text>
<rect x="250" y="400" width="50" height="50" fill="#f1f5f9" stroke="#94a3b8"/>
<text x="255" y="420" font-size="10" fill="#475569">86</text>
<rect x="200" y="400" width="50" height="50" fill="#f1f5f9" stroke="#94a3b8"/>
<text x="205" y="420" font-size="10" fill="#475569">85</text>
<rect x="150" y="400" width="50" height="50" fill="#f1f5f9" stroke="#94a3b8"/>
<text x="155" y="420" font-size="10" fill="#475569">84</text>
<rect x="100" y="400" width="50" height="50" fill="#f1f5f9" stroke="#94a3b8"/>
<text x="105" y="420" font-size="10" fill="#475569">83</text>
<rect x="50" y="400" width="50" height="50" fill="#f1f5f9" stroke="#94a3b8"/>
<text x="55" y="420" font-size="10" fill="#475569">82</text>
<rect x="0" y="400" width="50" height="50" fill="#f1f5f9" stroke="#94a3b8"/>
<text x="5" y="420" font-size="10" fill="#475569">81</text>
<rect x="0" y="350" width="50" height="50" fill="#fff" stroke="#94a3b8"/>
<text x="5" y="370" font-size="10" fill="#475569">80</text>
<rect x="50" y="350" width="50" height="50" fill="#fff" stroke="#94a3b8"/>
<text x="55" y="370" font-size="10" fill="#475569">79</text>
<rect x="100" y="350" width="50" height="50" fill="#fff" stroke="#94a3b8"/>
<text x="105" y="370" font-size="10" fill="#475569">78</text>
<rect x="150" y="350" width="50" height="50" fill="#fff" stroke="#94a3b8"/>
<text x="155" y="370" font-size="10" fill="#475569">77</text>
<rect x="200" y="350" width="50" height="50" fill="#fff" stroke="#94a3b8"/>
<text x="205" y="370" font-size="10" fill="#475569">76</text>
<rect x="250" y="350" width="50" height="50" fill="#fff" stroke="#94a3b8"/>
<text x="255" y="370" font-size="10" fill="#475569">75</text>
<rect x="300" y="350" width="50" height="50" fill="#fff" stroke="#94a3b8"/>
<text x="305" y="370" font-size="10" fill="#475569">74</text>
<rect x="350" y="350" width="50" height="50" fill="#fff" stroke="#94a3b8"/>
<text x="355" y="370" font-size="10" fill="#475569">73</text>
<rect x="400" y="350" width="50" height="50" fill="#fff" stroke="#94a3b8"/>
<text x="405" y="370" font-size="10" fill="#475569">72</text>
<rect x="450" y="350" width="50" height="50" fill="#fff" stroke="#94a3b8"/>
<text x="455" y="370" font-size="10" fill="#475569">71</text>
<rect x="450" y="300" width="50" height="50" fill="#f1f5f9" stroke="#94a3b8"/>
<text x="455" y="320" font-size="10" fill="#475569">70</text>
<rect x="400" y="300" width="50" height="50" fill="#f1f5f9" stroke="#94a3b8"/>
<text x="405" y="320" font-size="10" fill="#475569">69</text>
<rect x="350" y="300" width="50" height="50" fill="#f1f5f9" stroke="#94a3b8"/>
<text x="355" y="320" font-size="10" fill="#475569">68</text>
<rect x="300" y="300" width="50" height="50" fill="#f1f5f9" stroke="#94a3b8"/>
<text x="305" y="320" font-size="10" fill="#475569">67</text>
<rect x="250" y="300" width="50" height="50" fill="#f1f5f9" stroke="#94a3b8"/>
<text x="255" y="320" font-size="10" fill="#475569">66</text>
<rect x="200" y="300" width="50" height="50" fill="#f1f5f9" stroke="#94a3b8"/>
<text x="205" y="320" font-size="10" fill="#475569">65</text>
<rect x="150" y="300" width="50" height="50" fill="#f1f5f9" stroke="#94a3b8"/>
<text x="155" y="320" font-size="10" fill="#475569">64</text>
<rect x="100" y="300" width="50" height="50" fill="#f1f5f9" stroke="#94a3b8"/>
<text x="105" y="320" font-size="10" fill="#475569">63</text>
<rect x="50" y="300" width="50" height="50" fill="#f1f5f9" stroke="#94a3b8"/>
<text x="55" y="320" font-size="10" fill="#475569">62</text>
<rect x="0" y="300" width="50" height="50" fill="#f1f5f9" stroke="#94a3b8"/>
<text x="5" y="320" font-size="10" fill="#475569">61</text>
<rect x="0" y="250" width="50" height="50" fill="#fff" stroke="#94a3b8"/>
<text x="5" y="270" font-size="10" fill="#475569">60</text>
<rect x="50" y="250" width="50" height="50" fill="#fff" stroke="#94a3b8"/>
<text x="55" y="270" font-size="10" fill="#475569">59</text>
<rect x="100" y="250" width="50" height="50" fill="#fff" stroke="#94a3b8"/>
<text x="105" y="270" font-size="10" fill="#475569">58</text>
<rect x="150" y="250" width="50" height="50" fill="#fff" stroke="#94a3b8"/>
<text x="155" y="270" font-size="10" fill="#475569">57</text>
<rect x="200" y="250" width="50" height="50" fill="#fff" stroke="#94a3b8"/>
<text x="205" y="270" font-size="10" fill="#475569">56</text>
<rect x="250" y="250" width="50" height="50" fill="#fff" stroke="#94a3b8"/>
<text x="255" y="270" font-size="10" fill="#475569">55</text>
<rect x="300" y="250" width="50" height="50" fill="#fff" stroke="#94a3b8"/>
<text x="305" y="270" font-size="10" fill="#475569">54</text>
<rect x="350" y="250" width="50" height="50" fill="#fff" stroke="#94a3b8"/>
<text x="355" y="270" font-size="10" fill="#475569">53</text>
<rect x="400" y="250" width="50" height="50" fill="#fff" stroke="#94a3b8"/>
<text x="405" y="270" font-size="10" fill="#475569">52</text>
<rect x="450" y="250" width="50" height="50" fill="#fff" stroke="#94a3b8"/>
<text x="455" y="270" font-size="10" fill="#475569">51</text>
<rect x="450" y="200" width="50" height="50" fill="#f1f5f9" stroke="#94a3b8"/>
<text x="455" y="220" font-size="10" fill="#475569">50</text>
<rect x="400" y="200" width="50" height="50" fill="#f1f5f9" stroke="#94a3b8"/>
<text x="405" y="220" font-size="10" fill="#475569">49</text>
<rect x="350" y="200" width="50" height="50" fill="#f1f5f9" stroke="#94a3b8"/>
<text x="355" y="220" font-size="10" fill="#475569">48</text>
<rect x="300" y="200" width="50" height="50" fill="#f1f5f9" stroke="#94a3b8"/>
<text x="305" y="220" font-size="10" fill="#475569">47</text>
<rect x="250" y="200" width="50" height="50" fill="#f1f5f9" stroke="#94a3b8"/>
<text x="255" y="220" font-size="10" fill="#475569">46</text>
<rect x="200" y="200" width="50" height="50" fill="#f1f5f9" stroke="#94a3b8"/>
<text x="205" y="220" font-size="10" fill="#475569">45</text>
<rect x="150" y="200" width="50" height="50" fill="#f1f5f9" stroke="#94a3b8"/>
<text x="155" y="220" font-size="10" fill="#475569">44</text>
<rect x="100" y="200" width="50" height="50" fill="#f1f5f9" stroke="#94a3b8"/>
<text x="105" y="220" font-size="10" fill="#475569">43</text>
<rect x="50" y="200" width="50" height="50" fill="#f1f5f9" stroke="#94a3b8"/>
<text x="55" y="220" font-size="10" fill="#475569">42</text>
<rect x="0" y="200" width="50" height="50" fill="#f1f5f9" stroke="#94a3b8"/>
<text x="5" y="220" font-size="10" fill="#475569">41</text>
<rect x="0" y="150" width="50" height="50" fill="#fff" stroke="#94a3b8"/>
<text x="5" y="170" font-size="10" fill="#475569">40</text>
<rect x="50" y="150" width="50" height="50" fill="#fff" stroke="#94a3b8"/>
<text x="55" y="170" font-size="10" fill="#475569">39</text>
<rect x="100" y="150" width="50" height="50" fill="#fff" stroke="#94a3b8"/>
<text x="105" y="170" font-size="10" fill="#475569">38</text>
<rect x="150" y="150" width="50" height="50" fill="#fff" stroke="#94a3b8"/>
<text x="155" y="170" font-size="10" fill="#475569">37</text>
<rect x="200" y="150" width="50" height="50" fill="#fff" stroke="#94a3b8"/>
<text x="205" y="170" font-size="10" fill="#475569">36</text>
<rect x="250" y="150" width="50" height="50" fill="#fff" stroke="#94a3b8"/>
<text x="255" y="170" font-size="10" fill="#475569">35</text>
<rect x="300" y="150" width="50" height="50" fill="#fff" stroke="#94a3b8"/>
<text x="305" y="170" font-size="10" fill="#475569">34</text>
<rect x="350" y="150" width="50" height="50" fill="#fff" stroke="#94a3b8"/>
<text x="355" y="170" font-size="10" fill="#475569">33</text>
<rect x="400" y="150" width="50" height="50" fill="#fff" stroke="#94a3b8"/>
<text x="405" y="170" font-size="10" fill="#475569">32</text>
<rect x="450" y="150" width="50" height="50" fill="#fff" stroke="#94a3b8"/>
<text x="455" y="170" font-size="10" fill="#475569">31</text>
<rect x="450" y="100" width="50" height="50" fill="#f1f5f9" stroke="#94a3b8"/>
<text x="455" y="120" font-size="10" fill="#475569">30</text>
<rect x="400" y="100" width="50" height="50" fill="#f1f5f9" stroke="#94a3b8"/>
<text x="405" y="120" font-size="10" fill="#475569">29</text>
<rect x="350" y="100" width="50" height="50" fill="#f1f5f9" stroke="#94a3b8"/>
<text x="355" y="120" font-size="10" fill="#475569">28</text>
<rect x="300" y="100" width="50" height="50" fill="#f1f5f9" stroke="#94a3b8"/>
<text x="305" y="120" font-size="10" fill="#475569">27</text>
<rect x="250" y="100" width="50" height="50" fill="#f1f5f9" stroke="#94a3b8"/>
<text x="255" y="120" font-size="10" fill="#475569">26</text>
<rect x="200" y="100" width="50" height="50" fill="#f1f5f9" stroke="#94a3b8"/>
<text x="205" y="120" font-size="10" fill="#475569">25</text>
<rect x="150" y="100" width="50" height="50" fill="#f1f5f9" stroke="#94a3b8"/>
<text x="155" y="120" font-size="10" fill="#475569">24</text>
<rect x="100" y="100" width="50" height="50" fill="#f1f5f9" stroke="#94a3b8"/>
<text x="105" y="120" font-size="10" fill="#475569">23</text>
<rect x="50" y="100" width="50" height="50" fill="#f1f5f9" stroke="#94a3b8"/>
<text x="55" y="120" font-size="10" fill="#475569">22</text>
<rect x="0" y="100" width="50" height="50" fill="#f1f5f9" stroke="#94a3b8"/>
<text x="5" y="120" font-size="10" fill="#475569">21</text>
<rect x="0" y="50" width="50" height="50" fill="#fff" stroke="#94a3b8"/>
<text x="5" y="70" font-size="10" fill="#475569">20</text>
<rect x="50" y="50" width="50" height="50" fill="#fff" stroke="#94a3b8"/>
<text x="55" y="70" font-size="10" fill="#475569">19</text>
<rect x="100" y="50" width="50" height="50" fill="#fff" stroke="#94a3b8"/>
<text x="105" y="70" font-size="10" fill="#475569">18</text>
<rect x="150" y="50" width="50" height="50" fill="#fff" stroke="#94a3b8"/>
<text x="155" y="70" font-size="10" fill="#475569">17</text>
<rect x="200" y="50" width="50" height="50" fill="#fff" stroke="#94a3b8"/>
<text x="205" y="70" font-size="10" fill="#475569">16</text>
<rect x="250" y="50" width="50" height="50" fill="#fff" stroke="#94a3b8"/>
<text x="255" y="70" font-size="10" fill="#475569">15</text>
<rect x="300" y="50" width="50" height="50" fill="#fff" stroke="#94a3b8"/>
<text x="305" y="70" font-size="10" fill="#475569">14</text>
<rect x="350" y="50" width="50" height="50" fill="#fff" stroke="#94a3b8"/>
<text x="355" y="70" font-size="10" fill="#475569">13</text>
<rect x="400" y="50" width="50" height="50" fill="#fff" stroke="#94a3b8"/>
<text x="405" y="70" font-size="10" fill="#475569">12</text>
<rect x="450" y="50" width="50" height="50" fill="#fff" stroke="#94a3b8"/>
<text x="455" y="70" font-size="10" fill="#475569">11</text>
<rect x="450" y="0" width="50" height="50" fill="#f1f5f9" stroke="#94a3b8"/>
<text x="455" y="20" font-size="10" fill="#475569">10</text>
<rect x="400" y="0" width="50" height="50" fill="#f1f5f9" stroke="#94a3b8"/>
<text x="405" y="20" font-size="10" fill="#475569">9</text>
<rect x="350" y="0" width="50" height="50" fill="#f1f5f9" stroke="#94a3b8"/>
<text x="355" y="20" font-size="10" fill="#475569">8</text>
<rect x="300" y="0" width="50" height="50" fill="#f1f5f9" stroke="#94a3b8"/>
<text x="305" y="20" font-size="10" fill="#475569">7</text>
<rect x="250" y="0" width="50" height="50" fill="#f1f5f9" stroke="#94a3b8"/>
<text x="255" y="20" font-size="10" fill="#475569">6</text>
<rect x="200" y="0" width="50" height="50" fill="#f1f5f9" stroke="#94a3b8"/>
<text x="205" y="20" font-size="10" fill="#475569">5</text>
<rect x="150" y="0" width="50" height="50" fill="#f1f5f9" stroke="#94a3b8"/>
<text x="155" y="20" font-size="10" fill="#475569">4</text>
<rect x="100" y="0" width="50" height="50" fill="#f1f5f9" stroke="#94a3b8"/>
<text x="105" y="20" font-size="10" fill="#475569">3</text>
<rect x="50" y="0" width="50" height="50" fill="#f1f5f9" stroke="#94a3b8"/>
<text x="55" y="20" font-size="10" fill="#475569">2</text>
<rect x="0" y="0" width="50" height="50" fill="#f1f5f9" stroke="#94a3b8"/>
<text x="5" y="20" font-size="10" fill="#475569">1</text>
  </g>

  <!-- contoh tangga -->
  <g transform="translate(120,400) rotate(-30) scale(0.5)">
    <use href="#ladderSymbol" width="100" height="300"/>
  </g>

  <g transform="translate(300,250) rotate(20) scale(0.6)">
    <use href="#ladderSymbol" width="100" height="300"/>
  </g>

  <!-- contoh ular -->
  <g transform="translate(400,150) rotate(200) scale(0.6)">
    <use href="#snakeSymbol" width="300" height="200"/>
  </g>

  <g transform="translate(150,150) rotate(30) scale(0.5)">
    <use href="#snakeSymbol" width="300" height="200"/>
  </g>

</svg>