<?xml version="1.0" encoding="UTF-8"?>
<svg xmlns="http://www.w3.org/2000/svg" width="200" height="400" viewBox="0 0 200 400">
  <defs>
    <linearGradient id="woodGrad" x1="0" x2="1">
      <stop offset="0%" stop-color="#b07a3b"/>
      <stop offset="100%" stop-color="#8a5a2a"/>
    </linearGradient>
    <filter id="ladderShadow" x="-50%" y="-50%" width="200%" height="200%">
      <feDropShadow dx="0" dy="6" stdDeviation="6" flood-color="#000" flood-opacity="0.35"/>
    </filter>
    <symbol id="ladderSymbol" viewBox="0 0 100 300">
      <g filter="url(#ladderShadow)">
        <rect x="10" y="10" width="12" height="280" rx="4" fill="url(#woodGrad)"/>
        <rect x="78" y="10" width="12" height="280" rx="4" fill="url(#woodGrad)"/>
      </g>
      <g opacity="0.12" stroke="#000" stroke-width="0.6" stroke-linecap="round">
        <path d="M18 30 C30 40, 14 90, 22 130" fill="none"/>
        <path d="M86 50 C72 80, 90 130, 80 170" fill="none"/>
      </g>
      <g stroke="#efe7d6" stroke-width="6" stroke-linecap="round">
        <line x1="22" x2="88" y1="40" y2="40"/>
        <line x1="22" x2="88" y1="72" y2="72"/>
        <line x1="22" x2="88" y1="104" y2="104"/>
        <line x1="22" x2="88" y1="136" y2="136"/>
        <line x1="22" x2="88" y1="168" y2="168"/>
        <line x1="22" x2="88" y1="200" y2="200"/>
        <line x1="22" x2="88" y1="232" y2="232"/>
        <line x1="22" x2="88" y1="264" y2="264"/>
        <line x1="22" x2="88" y1="296" y2="296"/>
      </g>
    </symbol>
  </defs>
  <use href="#ladderSymbol" x="10" y="10" width="180" height="360"/>
</svg>